<svg xmlns="http://www.w3.org/2000/svg" viewBox="0 0 1180 1320" width="1180" height="1320" style="background-color: #ffffff; font-family: 'Segoe UI', -apple-system, BlinkMacSystemFont, Roboto, Helvetica, Arial, sans-serif;">
  <rect width="100%" height="100%" fill="#ffffff"/>
  <!-- System Boundary -->
  <rect x="370" y="35" width="440" height="1240" fill="#ffffff" stroke="#000000" stroke-width="2.2"/>
  <text x="590.0" y="71" font-size="18" font-weight="bold" text-anchor="middle" fill="#000000" letter-spacing="1">PET ADOPTION</text>
  <text x="590.0" y="95" font-size="18" font-weight="bold" text-anchor="middle" fill="#000000" letter-spacing="1">SYSTEM</text>
  <!-- Association Lines -->
  <line x1="120" y1="520" x2="445.0" y2="163.0" stroke="#000000" stroke-width="1.3"/>
  <line x1="1050" y1="410" x2="735.0" y2="163.0" stroke="#000000" stroke-width="1.3"/>
  <line x1="1050" y1="1020" x2="735.0" y2="163.0" stroke="#000000" stroke-width="1.3"/>
  <line x1="120" y1="520" x2="445.0" y2="235.66666666666669" stroke="#000000" stroke-width="1.3"/>
  <line x1="1050" y1="410" x2="735.0" y2="235.66666666666669" stroke="#000000" stroke-width="1.3"/>
  <line x1="120" y1="520" x2="445.0" y2="308.33333333333337" stroke="#000000" stroke-width="1.3"/>
  <line x1="120" y1="520" x2="445.0" y2="381.0" stroke="#000000" stroke-width="1.3"/>
  <line x1="120" y1="520" x2="445.0" y2="453.6666666666667" stroke="#000000" stroke-width="1.3"/>
  <line x1="1050" y1="410" x2="735.0" y2="453.6666666666667" stroke="#000000" stroke-width="1.3"/>
  <line x1="120" y1="520" x2="445.0" y2="526.3333333333334" stroke="#000000" stroke-width="1.3"/>
  <line x1="120" y1="520" x2="445.0" y2="599.0" stroke="#000000" stroke-width="1.3"/>
  <line x1="1050" y1="410" x2="735.0" y2="599.0" stroke="#000000" stroke-width="1.3"/>
  <line x1="120" y1="520" x2="445.0" y2="671.6666666666667" stroke="#000000" stroke-width="1.3"/>
  <line x1="1050" y1="410" x2="735.0" y2="671.6666666666667" stroke="#000000" stroke-width="1.3"/>
  <line x1="1050" y1="410" x2="735.0" y2="744.3333333333334" stroke="#000000" stroke-width="1.3"/>
  <line x1="1050" y1="1020" x2="735.0" y2="744.3333333333334" stroke="#000000" stroke-width="1.3"/>
  <line x1="1050" y1="410" x2="735.0" y2="817.0" stroke="#000000" stroke-width="1.3"/>
  <line x1="1050" y1="410" x2="735.0" y2="889.6666666666667" stroke="#000000" stroke-width="1.3"/>
  <line x1="1050" y1="410" x2="735.0" y2="962.3333333333334" stroke="#000000" stroke-width="1.3"/>
  <line x1="1050" y1="1020" x2="735.0" y2="1035.0" stroke="#000000" stroke-width="1.3"/>
  <line x1="1050" y1="1020" x2="735.0" y2="1107.6666666666667" stroke="#000000" stroke-width="1.3"/>
  <line x1="1050" y1="410" x2="735.0" y2="1107.6666666666667" stroke="#000000" stroke-width="1.3"/>
  <line x1="120" y1="520" x2="445.0" y2="1180.3333333333335" stroke="#000000" stroke-width="1.3"/>
  <line x1="1050" y1="410" x2="735.0" y2="1180.3333333333335" stroke="#000000" stroke-width="1.3"/>
  <line x1="1050" y1="1020" x2="735.0" y2="1180.3333333333335" stroke="#000000" stroke-width="1.3"/>
  <!-- Use Case Ovals -->
  <ellipse cx="590.0" cy="163.0" rx="145" ry="23" fill="#ffffff" stroke="#000000" stroke-width="1.7"/>
  <text x="590.0" y="168.0" font-size="14" font-weight="normal" text-anchor="middle" fill="#000000">Register / Login</text>
  <ellipse cx="590.0" cy="235.66666666666669" rx="145" ry="23" fill="#ffffff" stroke="#000000" stroke-width="1.7"/>
  <text x="590.0" y="240.66666666666669" font-size="14" font-weight="normal" text-anchor="middle" fill="#000000">View / Manage Profile</text>
  <ellipse cx="590.0" cy="308.33333333333337" rx="145" ry="23" fill="#ffffff" stroke="#000000" stroke-width="1.7"/>
  <text x="590.0" y="313.33333333333337" font-size="14" font-weight="normal" text-anchor="middle" fill="#000000">Search & Browse Pets</text>
  <ellipse cx="590.0" cy="381.0" rx="145" ry="23" fill="#ffffff" stroke="#000000" stroke-width="1.7"/>
  <text x="590.0" y="386.0" font-size="14" font-weight="normal" text-anchor="middle" fill="#000000">View Pet Details</text>
  <ellipse cx="590.0" cy="453.6666666666667" rx="145" ry="23" fill="#ffffff" stroke="#000000" stroke-width="1.7"/>
  <text x="590.0" y="458.6666666666667" font-size="14" font-weight="normal" text-anchor="middle" fill="#000000">Submit Adoption Request</text>
  <ellipse cx="590.0" cy="526.3333333333334" rx="145" ry="23" fill="#ffffff" stroke="#000000" stroke-width="1.7"/>
  <text x="590.0" y="531.3333333333334" font-size="14" font-weight="normal" text-anchor="middle" fill="#000000">Pay Online / Confirm Order</text>
  <ellipse cx="590.0" cy="599.0" rx="145" ry="23" fill="#ffffff" stroke="#000000" stroke-width="1.7"/>
  <text x="590.0" y="604.0" font-size="14" font-weight="normal" text-anchor="middle" fill="#000000">Track Delivery Status</text>
  <ellipse cx="590.0" cy="671.6666666666667" rx="145" ry="23" fill="#ffffff" stroke="#000000" stroke-width="1.7"/>
  <text x="590.0" y="676.6666666666667" font-size="14" font-weight="normal" text-anchor="middle" fill="#000000">Send Inquiries & Messages</text>
  <ellipse cx="590.0" cy="744.3333333333334" rx="145" ry="23" fill="#ffffff" stroke="#000000" stroke-width="1.7"/>
  <text x="590.0" y="749.3333333333334" font-size="14" font-weight="normal" text-anchor="middle" fill="#000000">Manage Pet Listings</text>
  <ellipse cx="590.0" cy="817.0" rx="145" ry="23" fill="#ffffff" stroke="#000000" stroke-width="1.7"/>
  <text x="590.0" y="822.0" font-size="14" font-weight="normal" text-anchor="middle" fill="#000000">Review & Approve Requests</text>
  <ellipse cx="590.0" cy="889.6666666666667" rx="145" ry="23" fill="#ffffff" stroke="#000000" stroke-width="1.7"/>
  <text x="590.0" y="894.6666666666667" font-size="14" font-weight="normal" text-anchor="middle" fill="#000000">Schedule Pet Delivery</text>
  <ellipse cx="590.0" cy="962.3333333333334" rx="145" ry="23" fill="#ffffff" stroke="#000000" stroke-width="1.7"/>
  <text x="590.0" y="967.3333333333334" font-size="14" font-weight="normal" text-anchor="middle" fill="#000000">Update Live Transport Status</text>
  <ellipse cx="590.0" cy="1035.0" rx="145" ry="23" fill="#ffffff" stroke="#000000" stroke-width="1.7"/>
  <text x="590.0" y="1040.0" font-size="14" font-weight="normal" text-anchor="middle" fill="#000000">Verify & Approve Shelters</text>
  <ellipse cx="590.0" cy="1107.6666666666667" rx="145" ry="23" fill="#ffffff" stroke="#000000" stroke-width="1.7"/>
  <text x="590.0" y="1112.6666666666667" font-size="14" font-weight="normal" text-anchor="middle" fill="#000000">Monitor Platform Reports</text>
  <ellipse cx="590.0" cy="1180.3333333333335" rx="145" ry="23" fill="#ffffff" stroke="#000000" stroke-width="1.7"/>
  <text x="590.0" y="1185.3333333333335" font-size="14" font-weight="normal" text-anchor="middle" fill="#000000">Logout</text>
  <!-- Actors -->
  <circle cx="120" cy="472.0" r="24.0" fill="#ffffff" stroke="#000000" stroke-width="1.8"/>
  <line x1="120" y1="496.0" x2="120" y2="580.0" stroke="#000000" stroke-width="1.8"/>
  <line x1="78.0" y1="520" x2="162.0" y2="520" stroke="#000000" stroke-width="1.8"/>
  <line x1="120" y1="580.0" x2="86.0" y2="650.0" stroke="#000000" stroke-width="1.8"/>
  <line x1="120" y1="580.0" x2="154.0" y2="650.0" stroke="#000000" stroke-width="1.8"/>
  <text x="120" y="678.0" font-family="'Segoe UI', -apple-system, BlinkMacSystemFont, Roboto, Helvetica, Arial, sans-serif" font-size="15.5" font-weight="bold" text-anchor="middle" fill="#000000">Adopter</text>
  <circle cx="1050" cy="362.0" r="24.0" fill="#ffffff" stroke="#000000" stroke-width="1.8"/>
  <line x1="1050" y1="386.0" x2="1050" y2="470.0" stroke="#000000" stroke-width="1.8"/>
  <line x1="1008.0" y1="410" x2="1092.0" y2="410" stroke="#000000" stroke-width="1.8"/>
  <line x1="1050" y1="470.0" x2="1016.0" y2="540.0" stroke="#000000" stroke-width="1.8"/>
  <line x1="1050" y1="470.0" x2="1084.0" y2="540.0" stroke="#000000" stroke-width="1.8"/>
  <text x="1050" y="568.0" font-family="'Segoe UI', -apple-system, BlinkMacSystemFont, Roboto, Helvetica, Arial, sans-serif" font-size="15.5" font-weight="bold" text-anchor="middle" fill="#000000">Shelter</text>
  <circle cx="1050" cy="972.0" r="24.0" fill="#ffffff" stroke="#000000" stroke-width="1.8"/>
  <line x1="1050" y1="996.0" x2="1050" y2="1080.0" stroke="#000000" stroke-width="1.8"/>
  <line x1="1008.0" y1="1020" x2="1092.0" y2="1020" stroke="#000000" stroke-width="1.8"/>
  <line x1="1050" y1="1080.0" x2="1016.0" y2="1150.0" stroke="#000000" stroke-width="1.8"/>
  <line x1="1050" y1="1080.0" x2="1084.0" y2="1150.0" stroke="#000000" stroke-width="1.8"/>
  <text x="1050" y="1178.0" font-family="'Segoe UI', -apple-system, BlinkMacSystemFont, Roboto, Helvetica, Arial, sans-serif" font-size="15.5" font-weight="bold" text-anchor="middle" fill="#000000">Admin</text>
</svg>